<?xml version="1.0" standalone="no"?>
<!DOCTYPE svg PUBLIC "-//W3C//DTD SVG 20010904//EN"
 "http://www.w3.org/TR/2001/REC-SVG-20010904/DTD/svg10.dtd">
<svg version="1.0" xmlns="http://www.w3.org/2000/svg"
 width="973.000000pt" height="973.000000pt" viewBox="0 0 973.000000 973.000000"
 preserveAspectRatio="xMidYMid meet">

<g transform="translate(0.000000,973.000000) scale(0.100000,-0.100000)"
fill="#000000" stroke="none">
<path d="M4600 9719 c-686 -35 -1356 -217 -1967 -534 -454 -236 -831 -513
-1203 -885 -290 -290 -506 -562 -709 -892 -270 -438 -471 -925 -590 -1428
-167 -702 -167 -1528 0 -2230 172 -726 494 -1375 976 -1970 151 -186 487 -522
673 -673 595 -482 1244 -804 1970 -976 702 -167 1528 -167 2230 0 609 145
1203 414 1701 770 429 307 841 719 1148 1148 625 874 946 1965 891 3037 -37
734 -210 1383 -535 2011 -236 454 -513 831 -885 1203 -372 372 -749 649 -1203
885 -624 323 -1275 498 -1997 535 -215 11 -272 11 -500 -1z m290 -369 c0 -44
55 -142 128 -232 40 -48 72 -89 72 -93 0 -3 -29 -39 -64 -80 -99 -113 -114
-141 -123 -220 -8 -66 -10 -70 -33 -70 -23 0 -25 5 -37 74 -14 83 -32 114
-122 214 -33 37 -61 74 -61 81 0 8 29 48 65 90 77 91 108 143 129 214 8 29 18
57 22 63 9 15 24 -9 24 -41z m-1198 -200 c34 -51 64 -80 138 -132 52 -37 104
-73 115 -81 19 -14 19 -17 -28 -114 -58 -121 -64 -152 -42 -227 18 -61 14 -74
-23 -78 -20 -3 -27 6 -48 57 -31 75 -56 100 -169 168 -65 40 -90 60 -88 73 1
11 20 64 44 119 39 94 42 105 41 193 0 51 3 92 8 90 4 -2 28 -32 52 -68z
m2410 -27 c3 -88 8 -109 46 -201 23 -56 42 -107 42 -112 0 -5 -44 -38 -97 -73
-112 -72 -143 -105 -169 -176 -18 -51 -30 -59 -64 -41 -17 9 -17 13 -3 72 19
82 13 112 -43 230 -26 54 -46 100 -43 101 2 2 45 32 94 66 112 76 158 120 192
182 14 27 30 49 34 49 4 0 9 -44 11 -97z m-3463 -434 c41 -48 89 -77 196 -119
44 -18 83 -35 87 -39 4 -3 -4 -53 -17 -111 -31 -131 -31 -146 0 -221 26 -64
25 -73 -4 -88 -14 -8 -25 1 -62 50 -48 66 -101 99 -221 138 -37 13 -70 26 -73
31 -3 5 7 68 21 140 26 128 26 134 11 208 -16 84 -12 108 12 73 9 -13 31 -41
50 -62z m4528 44 c-29 -135 -29 -149 -8 -253 26 -127 27 -159 4 -166 -77 -23
-209 -81 -233 -100 -16 -14 -41 -45 -57 -69 -30 -48 -39 -52 -68 -32 -17 13
-17 16 10 73 33 71 34 116 5 238 -12 48 -19 94 -16 101 2 7 31 23 63 35 117
43 182 81 228 132 25 27 45 54 45 59 0 5 7 9 16 9 13 0 15 -6 11 -27z m-2256
-871 c52 -131 336 -765 459 -1027 29 -60 100 -216 160 -345 165 -361 731
-1559 757 -1602 2 -5 -2 -8 -9 -8 -7 1 -75 51 -150 113 -99 81 -149 130 -176
173 -39 58 -495 678 -583 790 l-45 59 -215 64 c-118 35 -220 66 -226 69 -10 3
-13 -107 -13 -532 0 -295 -4 -536 -8 -536 -4 0 -27 60 -50 133 -95 290 -276
817 -282 817 -7 0 -354 -214 -588 -364 -85 -53 -157 -96 -161 -94 -5 2 25 73
66 158 125 259 403 850 443 940 21 47 56 123 78 170 22 47 62 135 90 195 27
61 89 196 137 300 48 105 128 283 178 398 51 114 96 206 100 204 5 -1 22 -35
38 -75z m-3196 -420 c43 -120 74 -172 125 -207 42 -29 48 -50 18 -68 -12 -8
-27 -6 -56 7 -49 22 -142 18 -247 -12 -40 -11 -75 -16 -80 -11 -6 4 -31 59
-55 121 -39 97 -53 121 -102 172 -78 81 -77 86 6 61 67 -21 135 -18 241 10 50
13 96 22 104 21 7 0 28 -42 46 -94z m6442 67 c114 -27 194 -29 256 -5 27 10
51 15 54 12 3 -3 -23 -36 -58 -73 -54 -58 -70 -83 -103 -168 -56 -143 -49
-138 -157 -109 -116 31 -169 31 -239 -2 l-55 -25 -18 23 c-19 22 -19 23 4 38
65 43 114 107 143 185 48 130 56 145 70 145 8 0 54 -9 103 -21z m-6982 -941
c64 -125 88 -155 151 -186 53 -26 63 -42 45 -71 -8 -12 -19 -12 -76 4 -76 20
-86 18 -233 -41 -46 -19 -88 -32 -92 -29 -5 3 -31 45 -59 93 -59 103 -109 164
-162 198 -22 13 -39 28 -39 32 0 5 46 8 103 8 98 0 106 1 197 41 52 23 100 42
107 42 6 1 32 -41 58 -91z m7441 83 c5 -4 52 -26 104 -47 99 -41 167 -49 253
-31 54 11 47 -5 -23 -54 -59 -41 -102 -96 -175 -222 -15 -27 -34 -51 -41 -54
-8 -3 -55 12 -106 32 -114 46 -146 51 -228 32 -35 -9 -68 -13 -72 -11 -5 3 -8
15 -8 28 0 17 12 28 51 46 66 31 109 80 160 182 55 110 63 119 85 99z m-5081
-333 c44 -55 124 -153 177 -217 54 -64 98 -123 97 -131 0 -8 -19 -51 -42 -95
-40 -75 -44 -80 -85 -90 -42 -10 -44 -13 -101 -120 -165 -313 -343 -641 -353
-650 -19 -18 -11 11 151 518 23 70 41 133 41 140 0 7 -37 25 -82 41 l-83 28
-135 -78 c-237 -136 -504 -283 -509 -279 -6 7 822 1035 833 1035 6 -1 47 -46
91 -102z m3122 -165 c110 -148 269 -362 353 -478 84 -115 164 -225 178 -242
13 -18 20 -33 14 -33 -5 0 -68 35 -138 78 -71 43 -197 120 -280 171 l-152 92
-138 -26 c-77 -14 -172 -33 -213 -41 -70 -13 -76 -13 -95 4 -137 119 -196 177
-194 188 4 16 450 554 459 554 4 0 97 -120 206 -267z m-5820 -1043 c92 -83
142 -110 205 -110 49 0 64 -15 53 -51 -5 -14 -16 -19 -43 -19 -78 0 -129 -30
-260 -152 -38 -36 -45 -39 -60 -26 -9 8 -46 39 -82 69 -98 84 -129 103 -189
114 -30 6 -56 16 -58 22 -2 6 19 16 47 22 68 15 119 45 214 131 43 38 82 70
87 70 5 0 43 -32 86 -70z m8198 4 c80 -76 140 -113 204 -129 25 -7 47 -17 49
-23 1 -5 -20 -15 -48 -21 -69 -15 -91 -28 -190 -111 -47 -39 -91 -74 -97 -77
-7 -3 -51 29 -97 71 -103 91 -132 107 -208 113 -55 6 -58 7 -58 33 0 23 5 29
31 34 17 3 45 6 61 6 47 0 88 23 173 98 44 39 87 71 95 71 8 1 47 -29 85 -65z
m-5781 -1229 c93 -211 238 -457 383 -648 41 -55 73 -101 70 -103 -16 -17 -290
249 -349 339 -140 211 -193 311 -253 474 -21 56 -42 100 -47 97 -4 -3 -30 -38
-57 -77 -115 -172 -348 -380 -521 -467 -184 -93 -301 -121 -520 -125 -177 -4
-176 0 10 24 383 50 752 326 1011 758 29 49 66 108 82 132 l29 43 53 -158 c29
-88 78 -217 109 -289z m3462 373 c184 -357 451 -634 744 -772 101 -48 227 -82
346 -96 54 -6 100 -13 103 -15 11 -11 -222 -4 -304 10 -166 27 -364 107 -481
195 -92 69 -299 283 -366 378 -37 51 -69 89 -71 85 -3 -5 -26 -57 -51 -116
-104 -242 -235 -445 -384 -595 -166 -166 -323 -285 -239 -180 297 369 462 656
602 1048 34 93 51 130 60 130 2 0 20 -33 41 -72z m2233 -162 c80 -106 117
-141 179 -168 23 -10 42 -23 42 -28 0 -6 -28 -10 -62 -10 -72 -1 -136 -24
-242 -88 -37 -23 -72 -42 -76 -42 -5 0 -30 28 -56 63 -111 145 -129 162 -195
182 -65 20 -77 32 -60 62 9 18 16 18 75 10 83 -13 116 -3 221 63 43 27 85 50
91 50 7 0 44 -42 83 -94z m-4075 -1266 c-5 -256 -11 -422 -15 -390 -10 75 -11
1500 -1 1636 13 191 25 -753 16 -1246z m-3961 1299 c104 -71 137 -82 207 -68
68 13 90 8 90 -21 0 -16 -15 -28 -63 -49 -64 -29 -115 -82 -192 -198 -15 -24
-35 -43 -44 -43 -10 0 -48 19 -86 41 -88 54 -161 79 -227 79 -79 0 -90 13 -37
40 70 36 114 75 189 171 39 49 78 89 87 89 8 0 43 -19 76 -41z m2979 -729 c70
-113 159 -252 197 -310 297 -456 388 -600 360 -573 -12 12 -63 78 -113 147
-168 233 -323 449 -485 676 l-160 225 22 23 c11 12 28 21 36 20 8 -2 72 -95
143 -208z m2113 194 c14 -9 25 -20 25 -25 0 -4 -26 -43 -59 -86 -52 -70 -515
-706 -632 -867 -25 -35 -60 -81 -78 -102 l-33 -39 23 40 c13 22 115 180 228
350 253 384 373 567 436 668 27 42 52 77 57 77 5 0 20 -7 33 -16z m2630 -453
c53 -104 119 -184 180 -219 32 -18 7 -34 -35 -22 -78 22 -201 3 -358 -57 -8
-4 -29 30 -58 93 -61 131 -75 149 -156 201 -60 39 -67 46 -58 64 13 24 22 24
90 -2 70 -27 128 -22 230 19 41 16 83 30 92 31 12 1 34 -31 73 -108z m-7406
64 c126 -49 167 -53 236 -25 60 24 85 22 85 -9 0 -13 -18 -31 -52 -52 -67 -40
-85 -62 -147 -187 -29 -56 -55 -102 -59 -102 -4 0 -53 16 -110 35 -107 37
-185 44 -264 26 -50 -12 -51 9 -3 39 55 34 110 104 165 211 28 54 52 99 54 99
2 0 45 -16 95 -35z m6454 -769 c74 -55 92 -59 228 -52 l127 6 7 -43 c27 -179
41 -221 103 -315 36 -56 36 -76 -1 -52 -93 58 -117 64 -249 62 -88 -1 -129 3
-135 11 -5 7 -15 51 -21 99 -15 106 -37 157 -96 223 -35 39 -42 53 -35 67 13
24 34 23 72 -6z m-5591 -3 c10 -9 18 -20 18 -24 0 -4 -22 -33 -49 -64 -41 -47
-52 -69 -65 -125 -9 -38 -16 -84 -16 -102 0 -77 3 -75 -143 -80 -118 -3 -138
-7 -187 -31 -30 -14 -63 -32 -72 -39 -22 -16 -36 -2 -21 20 59 85 83 144 103
252 11 62 20 117 20 122 0 4 59 8 130 8 138 0 165 7 230 59 30 25 29 25 52 4z
m4822 -668 c42 -63 90 -92 218 -129 98 -28 96 -25 74 -155 -21 -118 -20 -146
4 -223 24 -76 24 -78 6 -78 -8 0 -27 15 -41 34 -40 53 -91 82 -210 122 -60 20
-113 41 -116 46 -3 5 2 53 12 106 25 133 24 155 -13 234 -30 67 -31 69 -12 83
30 23 39 18 78 -40z m-4014 13 c0 -5 -11 -35 -25 -68 -30 -72 -31 -84 -4 -223
11 -60 17 -113 12 -117 -4 -4 -61 -24 -126 -44 -110 -35 -121 -40 -182 -98
-36 -33 -69 -58 -72 -54 -4 3 3 37 15 74 27 83 27 108 5 239 -11 68 -14 106
-7 113 5 5 53 22 106 38 117 35 136 47 188 117 38 51 42 54 65 43 14 -6 25
-15 25 -20z m3035 -454 c32 -80 46 -95 159 -168 58 -39 106 -74 106 -80 0 -6
-21 -58 -47 -116 -44 -97 -48 -112 -51 -202 -2 -54 -8 -98 -11 -98 -4 0 -18
21 -30 48 -12 26 -32 58 -44 72 -23 26 -107 90 -167 128 -81 51 -79 39 -26
157 58 129 62 153 41 234 -13 52 -14 66 -3 73 29 19 53 3 73 -48z m-2059 32
c3 -7 -2 -39 -11 -70 -20 -69 -16 -90 41 -220 24 -54 44 -102 44 -107 0 -4
-42 -35 -92 -68 -105 -68 -144 -104 -185 -175 -15 -27 -32 -48 -38 -47 -5 0
-9 40 -10 89 0 82 -3 93 -47 192 -27 58 -48 112 -48 120 0 8 37 37 82 64 116
70 154 107 179 177 20 53 24 59 51 59 16 0 31 -6 34 -14z m1026 -193 c9 -87
38 -136 150 -261 l39 -43 -63 -77 c-95 -115 -109 -138 -133 -216 -12 -39 -26
-69 -31 -67 -5 2 -16 30 -25 62 -19 68 -62 137 -143 227 -31 34 -56 64 -56 66
0 2 33 42 73 89 88 102 114 152 122 230 6 56 8 58 33 55 25 -3 27 -7 34 -65z"/>
</g>
</svg>
