<svg width="50" height="50" viewBox="0 0 50 50" fill="none" xmlns="http://www.w3.org/2000/svg">
<g clip-path="url(#clip0_4_64)">
<path d="M48.1685 18.8937L32.3665 3.08958C30.4107 1.13956 27.7616 0.0445251 24.9998 0.0445251C22.238 0.0445251 19.5889 1.13956 17.6331 3.08958L1.83103 18.8937C1.24858 19.4725 0.786802 20.161 0.472453 20.9195C0.158104 21.6781 -0.00255748 22.4914 -0.000218975 23.3125V43.7646C-0.000218975 45.4222 0.658261 47.0119 1.83036 48.184C3.00247 49.3561 4.59218 50.0146 6.24978 50.0146H43.7498C45.4074 50.0146 46.9971 49.3561 48.1692 48.184C49.3413 47.0119 49.9998 45.4222 49.9998 43.7646V23.3125C50.0021 22.4914 49.8415 21.6781 49.5271 20.9195C49.2128 20.161 48.751 19.4725 48.1685 18.8937ZM31.2498 45.8479H18.7498V37.6521C18.7498 35.9945 19.4083 34.4048 20.5804 33.2327C21.7525 32.0606 23.3422 31.4021 24.9998 31.4021C26.6574 31.4021 28.2471 32.0606 29.4192 33.2327C30.5913 34.4048 31.2498 35.9945 31.2498 37.6521V45.8479ZM45.8331 43.7646C45.8331 44.3171 45.6136 44.847 45.2229 45.2377C44.8322 45.6284 44.3023 45.8479 43.7498 45.8479H35.4165V37.6521C35.4165 34.8894 34.319 32.2399 32.3655 30.2864C30.412 28.3329 27.7625 27.2354 24.9998 27.2354C22.2371 27.2354 19.5876 28.3329 17.6341 30.2864C15.6806 32.2399 14.5831 34.8894 14.5831 37.6521V45.8479H6.24978C5.69725 45.8479 5.16734 45.6284 4.77664 45.2377C4.38594 44.847 4.16645 44.3171 4.16645 43.7646V23.3125C4.16838 22.7604 4.38768 22.2312 4.77687 21.8396L20.579 6.04166C21.7533 4.87277 23.3428 4.21654 24.9998 4.21654C26.6567 4.21654 28.2462 4.87277 29.4206 6.04166L45.2227 21.8458C45.6104 22.2359 45.8295 22.7625 45.8331 23.3125V43.7646Z" fill="black"/>
</g>
<defs>
<clipPath id="clip0_4_64">
<rect width="50" height="50" fill="white"/>
</clipPath>
</defs>
</svg>
