<svg width="50" height="50" viewBox="0 0 50 50" fill="none" xmlns="http://www.w3.org/2000/svg">
<path d="M39.5833 0H10.4167C7.65501 0.00360877 5.00741 1.202 3.05462 3.33232C1.10184 5.46263 0.00330804 8.35092 0 11.3636L0 38.6364C0.00330804 41.6491 1.10184 44.5374 3.05462 46.6677C5.00741 48.798 7.65501 49.9964 10.4167 50H39.5833C42.345 49.9964 44.9926 48.798 46.9454 46.6677C48.8982 44.5374 49.9967 41.6491 50 38.6364V11.3636C49.9967 8.35092 48.8982 5.46263 46.9454 3.33232C44.9926 1.202 42.345 0.00360877 39.5833 0ZM10.4167 4.54545H39.5833C40.8308 4.54813 42.049 4.95799 43.0812 5.72228C44.1133 6.48658 44.9122 7.57033 45.375 8.83409L29.4208 26.2409C28.2467 27.5166 26.6571 28.2329 25 28.2329C23.3429 28.2329 21.7533 27.5166 20.5792 26.2409L4.625 8.83409C5.08781 7.57033 5.88669 6.48658 6.91885 5.72228C7.951 4.95799 9.1692 4.54813 10.4167 4.54545ZM39.5833 45.4545H10.4167C8.75906 45.4545 7.16935 44.7362 5.99725 43.4575C4.82515 42.1789 4.16667 40.4447 4.16667 38.6364V14.7727L17.6333 29.4545C19.5888 31.5824 22.238 32.7774 25 32.7774C27.762 32.7774 30.4112 31.5824 32.3667 29.4545L45.8333 14.7727V38.6364C45.8333 40.4447 45.1749 42.1789 44.0028 43.4575C42.8306 44.7362 41.2409 45.4545 39.5833 45.4545Z" fill="black"/>
</svg>
